<svg xmlns="http://www.w3.org/2000/svg" version="1.1" xmlns:xlink="http://www.w3.org/1999/xlink" xmlns:svgjs="http://svgjs.dev/svgjs" width="2000" height="853" viewBox="0 0 2000 853"><g transform="matrix(1,0,0,1,-1.2112696095522324,-1.6877941731686974)"><svg viewBox="0 0 396 169" data-background-color="#3a3d53" preserveAspectRatio="xMidYMid meet" height="853" width="2000" xmlns="http://www.w3.org/2000/svg" xmlns:xlink="http://www.w3.org/1999/xlink"><g id="tight-bounds" transform="matrix(1,0,0,1,0.24008861730862918,0.33439298389860994)"><svg viewBox="0 0 395.52 168.33121403220278" height="168.33121403220278" width="395.52"><g><svg viewBox="0 0 395.52 168.33121403220278" height="168.33121403220278" width="395.52"><g><svg viewBox="0 0 395.52 168.33121403220278" height="168.33121403220278" width="395.52"><g id="textblocktransform"><svg viewBox="0 0 395.52 168.33121403220278" height="168.33121403220278" width="395.52" id="textblock"><g><svg viewBox="0 0 395.52 168.33121403220278" height="168.33121403220278" width="395.52"><path d="M394.594 36.104C392.735 18.631 387.435 13.774 387.435 13.774 371.165-4.223 350.86-0.344 332.619 2.242 300.414 2.347 268.339 6.191 236.208 8.252 168.767 8.567 100.749 3.395 33.643 16.15 27.339 20.064-6.54 16.919 1.121 38.34 3.129 47.251 10.456 57.141 10.232 65.318 11.236 66.751 12.631 63.466 13.226 65.528 15.309 71.084 18.711 68.463 21.501 71.748 17.614 80.519 20.403 87.823 23.062 95.476 18.377 97.468 12.371 96.524 9.675 103.129 9.396 107.917 7.89 107.008 6.235 106.798 5.026 106.659 2.59 107.183 2.999 108.686 4.394 113.822-1.594 116.793 2.162 121.825-0.422 127.276 3.948 131.994 3.353 137.9 3.278 139.088 3.687 140.101 4.338 140.381 7.22 141.884 3.018 144.819 3.464 147.999 33.029 169.735 65.104 154.709 95.394 164.703 103.259 157.714 97.346 167.184 100.489 165.716 102.943 164.004 104.728 171.098 107.499 167.079 107.927 165.926 107.276 163.2 108.8 163.725 109.6 164.004 110.307 163.934 110.418 162.327 110.586 159.916 109.117 161.418 108.726 160.16 112.947 153.8 111.906 168.931 115.866 168.302 115.68 166.45 114.528 163.794 116.889 164.144 119.232 161.488 119.306 159.287 121.389 165.262 121.463 166.555 121.835 167.464 122.43 168.093 128.938 161.593 135.409 170.399 142.233 167.464 146.417 164.249 150.433 169.211 154.672 167.988 156.16 167.009 157.666 165.262 159.098 168.198 176.632 168.827 195.319 166.206 211.943 168.302 256.364 164.389 303.836 169.91 350.674 164.738 361.719 162.746 373.192 159.916 383.958 157.644 383.958 157.644 392.679 151.424 392.679 123.467S394.538 99.006 394.817 76.745C395.096 54.485 396.398 53.577 394.538 36.104Z" opacity="1" fill="#fffbf7" data-fill-palette-color="tertiary"></path><g transform="matrix(1,0,0,1,55.76832,26.230666666666668)"><svg width="283.98335999999995" viewBox="1 -39.6 97.29 39.7" height="115.86988069886945" data-palette-color="#3a3d53"><path d="M13.4-37Q16.9-37 18.82-35.02 20.75-33.05 20.75-29.15L20.75-29.15Q20.75-27.9 20.18-27.28 19.6-26.65 18.35-26.65L18.35-26.65Q15.95-26.65 15.85-28.8L15.85-28.8Q15.8-30.75 15.35-31.83 14.9-32.9 13.35-32.9L13.35-32.9Q11.65-32.9 11.03-31.38 10.4-29.85 10.4-26.4L10.4-26.4 10.4-20.65 13.95-20.65Q14.85-20.65 15.3-20.13 15.75-19.6 15.75-18.65L15.75-18.65Q15.75-16.85 13.9-16.8L13.9-16.8Q12.5-16.75 10.45-16.75L10.45-16.75 10.6-2.1Q10.65-1.05 9.98-0.53 9.3 0 8.2 0L8.2 0Q7.05 0 6.43-0.58 5.8-1.15 5.8-2.05L5.8-2.05Q5.75-7.4 5.55-16.65L5.55-16.65Q4.9-16.6 3.15-16.6L3.15-16.6Q2-16.6 1.5-17.1 1-17.6 1-18.6L1-18.6Q1-19.5 1.43-20 1.85-20.5 3.05-20.55L3.05-20.55 5.5-20.55Q5.4-24.95 5.4-26.65L5.4-26.65Q5.4-31.5 7.4-34.25 9.4-37 13.4-37L13.4-37ZM26.35-0.45Q25.25-0.45 24.6-1.05 23.95-1.65 23.95-2.6L23.95-2.6 23.65-37.4Q23.65-38.4 24.37-39 25.1-39.6 26.2-39.6L26.2-39.6Q27.3-39.6 27.95-39 28.6-38.4 28.6-37.45L28.6-37.45 28.85-2.65Q28.85-1.65 28.15-1.05 27.45-0.45 26.35-0.45L26.35-0.45ZM48 0.1Q42.1 0.1 38.37-3.03 34.65-6.15 34.65-12.4L34.65-12.4Q34.65-16.35 36.22-19.4 37.8-22.45 40.72-24.15 43.65-25.85 47.65-25.85L47.65-25.85Q51.55-25.85 54.62-24.2 57.7-22.55 59.42-19.48 61.15-16.4 61.15-12.3L61.15-12.3Q61.15-6.3 57.55-3.1 53.95 0.1 48 0.1L48 0.1ZM47.9-3.85Q51.6-3.85 53.9-6.03 56.2-8.2 56.2-12.4L56.2-12.4Q56.2-15.1 55.17-17.28 54.15-19.45 52.22-20.68 50.3-21.9 47.8-21.9L47.8-21.9Q44.1-21.9 41.87-19.33 39.65-16.75 39.65-12.45L39.65-12.45Q39.65-8.05 42-5.95 44.35-3.85 47.9-3.85L47.9-3.85ZM75.29-0.05Q73.49-0.05 71.87-2.25 70.24-4.45 68.99-8.45L68.99-8.45Q67.84-12 67.07-16.38 66.29-20.75 66.29-23.25L66.29-23.25Q66.29-24.7 66.87-25.33 67.44-25.95 68.69-25.95L68.69-25.95Q70.99-25.95 71.14-24.05L71.14-24.05Q71.49-20.15 71.84-17.8 72.19-15.45 73.09-11.7L73.09-11.7Q73.84-8.65 74.42-7.15 74.99-5.65 75.54-5.65L75.54-5.65Q76.04-5.65 77.07-9.2 78.09-12.75 79.64-19L79.64-19Q79.99-20.25 80.57-20.9 81.14-21.55 82.19-21.55L82.19-21.55Q83.19-21.55 83.77-20.93 84.34-20.3 84.79-18.95L84.79-18.95Q85.69-16.3 86.34-14.1L86.34-14.1Q87.64-9.75 88.42-7.78 89.19-5.8 89.84-5.8L89.84-5.8Q90.34-5.8 90.82-7.35 91.29-8.9 91.89-12.05L91.89-12.05Q92.74-16.4 93.02-18.53 93.29-20.65 93.44-23.9L93.44-23.9Q93.54-25.9 95.84-25.9L95.84-25.9Q97.24-25.9 97.77-25.18 98.29-24.45 98.29-22.85L98.29-22.85Q98.29-20.55 97.67-16.4 97.04-12.25 96.14-8.8L96.14-8.8Q93.79-0.05 90.24-0.05L90.24-0.05Q87.79-0.05 85.67-4.1 83.54-8.15 82.24-14.95L82.24-14.95Q81.29-8.2 79.52-4.13 77.74-0.05 75.29-0.05L75.29-0.05Z" opacity="1" transform="matrix(1,0,0,1,0,0)" fill="#000000" class="wordmark-text-0" data-fill-palette-color="quaternary" id="text-0"></path></svg></g></svg></g></svg></g></svg></g><g></g></svg></g><defs></defs></svg><rect width="395.52" height="168.33121403220278" fill="none" stroke="none" visibility="hidden"></rect></g></svg></g></svg>